solid part
  facet normal 0 0 0
    outer loop
      vertex -10.0 -10.0 -7.5
      vertex 10.0 -10.0 -7.5
      vertex 10.0 10.0 -7.5
    endloop
  endfacet
  facet normal 0 0 0
    outer loop
      vertex -10.0 -10.0 -7.5
      vertex 10.0 10.0 -7.5
      vertex -10.0 10.0 -7.5
    endloop
  endfacet
  facet normal 0 0 0
    outer loop
      vertex -10.0 -10.0 7.5
      vertex -10.0 10.0 7.5
      vertex 10.0 10.0 7.5
    endloop
  endfacet
  facet normal 0 0 0
    outer loop
      vertex -10.0 -10.0 7.5
      vertex 10.0 10.0 7.5
      vertex 10.0 -10.0 7.5
    endloop
  endfacet
  facet normal 0 0 0
    outer loop
      vertex -10.0 -10.0 -7.5
      vertex -10.0 -10.0 7.5
      vertex 10.0 -10.0 7.5
    endloop
  endfacet
  facet normal 0 0 0
    outer loop
      vertex -10.0 -10.0 -7.5
      vertex 10.0 -10.0 7.5
      vertex 10.0 -10.0 -7.5
    endloop
  endfacet
  facet normal 0 0 0
    outer loop
      vertex 10.0 10.0 -7.5
      vertex 10.0 10.0 7.5
      vertex -10.0 10.0 7.5
    endloop
  endfacet
  facet normal 0 0 0
    outer loop
      vertex 10.0 10.0 -7.5
      vertex -10.0 10.0 7.5
      vertex -10.0 10.0 -7.5
    endloop
  endfacet
  facet normal 0 0 0
    outer loop
      vertex -10.0 -10.0 -7.5
      vertex -10.0 10.0 -7.5
      vertex -10.0 10.0 7.5
    endloop
  endfacet
  facet normal 0 0 0
    outer loop
      vertex -10.0 -10.0 -7.5
      vertex -10.0 10.0 7.5
      vertex -10.0 -10.0 7.5
    endloop
  endfacet
  facet normal 0 0 0
    outer loop
      vertex 10.0 -10.0 -7.5
      vertex 10.0 -10.0 7.5
      vertex 10.0 10.0 7.5
    endloop
  endfacet
  facet normal 0 0 0
    outer loop
      vertex 10.0 -10.0 -7.5
      vertex 10.0 10.0 7.5
      vertex 10.0 10.0 -7.5
    endloop
  endfacet
endsolid part
