solid cube
  facet normal 0 0 0
    outer loop
      vertex -72.0 -57.0 -1.5
      vertex 72.0 -57.0 -1.5
      vertex 72.0 57.0 -1.5
    endloop
  endfacet
  facet normal 0 0 0
    outer loop
      vertex -72.0 -57.0 -1.5
      vertex 72.0 57.0 -1.5
      vertex -72.0 57.0 -1.5
    endloop
  endfacet
  facet normal 0 0 0
    outer loop
      vertex -72.0 -57.0 1.5
      vertex -72.0 57.0 1.5
      vertex 72.0 57.0 1.5
    endloop
  endfacet
  facet normal 0 0 0
    outer loop
      vertex -72.0 -57.0 1.5
      vertex 72.0 57.0 1.5
      vertex 72.0 -57.0 1.5
    endloop
  endfacet
  facet normal 0 0 0
    outer loop
      vertex -72.0 -57.0 -1.5
      vertex -72.0 -57.0 1.5
      vertex 72.0 -57.0 1.5
    endloop
  endfacet
  facet normal 0 0 0
    outer loop
      vertex -72.0 -57.0 -1.5
      vertex 72.0 -57.0 1.5
      vertex 72.0 -57.0 -1.5
    endloop
  endfacet
  facet normal 0 0 0
    outer loop
      vertex 72.0 57.0 -1.5
      vertex 72.0 57.0 1.5
      vertex -72.0 57.0 1.5
    endloop
  endfacet
  facet normal 0 0 0
    outer loop
      vertex 72.0 57.0 -1.5
      vertex -72.0 57.0 1.5
      vertex -72.0 57.0 -1.5
    endloop
  endfacet
  facet normal 0 0 0
    outer loop
      vertex -72.0 -57.0 -1.5
      vertex -72.0 57.0 -1.5
      vertex -72.0 57.0 1.5
    endloop
  endfacet
  facet normal 0 0 0
    outer loop
      vertex -72.0 -57.0 -1.5
      vertex -72.0 57.0 1.5
      vertex -72.0 -57.0 1.5
    endloop
  endfacet
  facet normal 0 0 0
    outer loop
      vertex 72.0 -57.0 -1.5
      vertex 72.0 -57.0 1.5
      vertex 72.0 57.0 1.5
    endloop
  endfacet
  facet normal 0 0 0
    outer loop
      vertex 72.0 -57.0 -1.5
      vertex 72.0 57.0 1.5
      vertex 72.0 57.0 -1.5
    endloop
  endfacet
endsolid cube
