solid cube
  facet normal 0 0 0
    outer loop
      vertex -75.0 -60.0 -30.0
      vertex 75.0 -60.0 -30.0
      vertex 75.0 60.0 -30.0
    endloop
  endfacet
  facet normal 0 0 0
    outer loop
      vertex -75.0 -60.0 -30.0
      vertex 75.0 60.0 -30.0
      vertex -75.0 60.0 -30.0
    endloop
  endfacet
  facet normal 0 0 0
    outer loop
      vertex -75.0 -60.0 30.0
      vertex -75.0 60.0 30.0
      vertex 75.0 60.0 30.0
    endloop
  endfacet
  facet normal 0 0 0
    outer loop
      vertex -75.0 -60.0 30.0
      vertex 75.0 60.0 30.0
      vertex 75.0 -60.0 30.0
    endloop
  endfacet
  facet normal 0 0 0
    outer loop
      vertex -75.0 -60.0 -30.0
      vertex -75.0 -60.0 30.0
      vertex 75.0 -60.0 30.0
    endloop
  endfacet
  facet normal 0 0 0
    outer loop
      vertex -75.0 -60.0 -30.0
      vertex 75.0 -60.0 30.0
      vertex 75.0 -60.0 -30.0
    endloop
  endfacet
  facet normal 0 0 0
    outer loop
      vertex 75.0 60.0 -30.0
      vertex 75.0 60.0 30.0
      vertex -75.0 60.0 30.0
    endloop
  endfacet
  facet normal 0 0 0
    outer loop
      vertex 75.0 60.0 -30.0
      vertex -75.0 60.0 30.0
      vertex -75.0 60.0 -30.0
    endloop
  endfacet
  facet normal 0 0 0
    outer loop
      vertex -75.0 -60.0 -30.0
      vertex -75.0 60.0 -30.0
      vertex -75.0 60.0 30.0
    endloop
  endfacet
  facet normal 0 0 0
    outer loop
      vertex -75.0 -60.0 -30.0
      vertex -75.0 60.0 30.0
      vertex -75.0 -60.0 30.0
    endloop
  endfacet
  facet normal 0 0 0
    outer loop
      vertex 75.0 -60.0 -30.0
      vertex 75.0 -60.0 30.0
      vertex 75.0 60.0 30.0
    endloop
  endfacet
  facet normal 0 0 0
    outer loop
      vertex 75.0 -60.0 -30.0
      vertex 75.0 60.0 30.0
      vertex 75.0 60.0 -30.0
    endloop
  endfacet
endsolid cube
