solid part
  facet normal 0 0 0
    outer loop
      vertex -40.0 -2.5 -2.5
      vertex 40.0 -2.5 -2.5
      vertex 40.0 2.5 -2.5
    endloop
  endfacet
  facet normal 0 0 0
    outer loop
      vertex -40.0 -2.5 -2.5
      vertex 40.0 2.5 -2.5
      vertex -40.0 2.5 -2.5
    endloop
  endfacet
  facet normal 0 0 0
    outer loop
      vertex -40.0 -2.5 2.5
      vertex -40.0 2.5 2.5
      vertex 40.0 2.5 2.5
    endloop
  endfacet
  facet normal 0 0 0
    outer loop
      vertex -40.0 -2.5 2.5
      vertex 40.0 2.5 2.5
      vertex 40.0 -2.5 2.5
    endloop
  endfacet
  facet normal 0 0 0
    outer loop
      vertex -40.0 -2.5 -2.5
      vertex -40.0 -2.5 2.5
      vertex 40.0 -2.5 2.5
    endloop
  endfacet
  facet normal 0 0 0
    outer loop
      vertex -40.0 -2.5 -2.5
      vertex 40.0 -2.5 2.5
      vertex 40.0 -2.5 -2.5
    endloop
  endfacet
  facet normal 0 0 0
    outer loop
      vertex 40.0 2.5 -2.5
      vertex 40.0 2.5 2.5
      vertex -40.0 2.5 2.5
    endloop
  endfacet
  facet normal 0 0 0
    outer loop
      vertex 40.0 2.5 -2.5
      vertex -40.0 2.5 2.5
      vertex -40.0 2.5 -2.5
    endloop
  endfacet
  facet normal 0 0 0
    outer loop
      vertex -40.0 -2.5 -2.5
      vertex -40.0 2.5 -2.5
      vertex -40.0 2.5 2.5
    endloop
  endfacet
  facet normal 0 0 0
    outer loop
      vertex -40.0 -2.5 -2.5
      vertex -40.0 2.5 2.5
      vertex -40.0 -2.5 2.5
    endloop
  endfacet
  facet normal 0 0 0
    outer loop
      vertex 40.0 -2.5 -2.5
      vertex 40.0 -2.5 2.5
      vertex 40.0 2.5 2.5
    endloop
  endfacet
  facet normal 0 0 0
    outer loop
      vertex 40.0 -2.5 -2.5
      vertex 40.0 2.5 2.5
      vertex 40.0 2.5 -2.5
    endloop
  endfacet
endsolid part
